<svg id="Layer_1" data-name="Layer 1" xmlns="http://www.w3.org/2000/svg" width="500" height="500" viewBox="0 0 500 500">
	<defs>
		<linearGradient id="linear-gradient" x1="100.27" y1="400.92" x2="98.47" y2="403.27" gradientTransform="matrix(129.33, 0, 0, -170.56, -12554.09, 68823.33)"
						gradientUnits="userSpaceOnUse">
			<stop offset="0" stop-color="#fff"/>
			<stop offset="1"/>
		</linearGradient>
	</defs>
	<title>icon</title>
	<path id="Path_264" data-name="Path 264"
		  d="M267.62,2.15c-43.47-2.31-41,27.6-9,33.76l2,.31h0c75.91,12.8,140,70.15,140,149.24a151,151,0,0,1-244.8,117L141.73,376l49.67,92.66,154.77,5.86,11-.46A248.07,248.07,0,0,0,500,249.75C499.84,118.55,397.39,11.1,267.62,2.15Z"
		  fill="#31a2e8"/>
	<path id="Path_265" data-name="Path 265"
		  d="M267.62,2.15c-43.47-2.31-41,27.6-9,33.76l2,.31h0c75.91,12.8,140,70.15,140,149.24a151,151,0,0,1-244.8,117L141.73,376l49.67,92.66,154.77,5.86,11-.46A248.07,248.07,0,0,0,500,249.75C499.84,118.55,397.39,11.1,267.62,2.15Z"
		  opacity="0.5" fill="url(#linear-gradient)" style="isolation:isolate"/>
	<path id="Path_266" data-name="Path 266"
		  d="M387.46,457C266.69,516.78,102.76,395.9,249.92,249.6,397.08,103.44,165.63-66.14,41.29,113A245.88,245.88,0,0,0,0,249.75C0,386.81,111.92,498,249.92,498a249.88,249.88,0,0,0,137.53-41Z"
		  fill="#31a2e8"/>
</svg>